# xmcd
#
# Track frame offsets:
#	150
#	12974
#	27939
#	41110
#	55895
#	72175
#	90387
#	107176
#	124267
#	140393
#	156203
#	171842
#	183258
#	200188
#	213508
#	226628
#	240798
#	252911
#	267604
#	284182
#	300460
#	311396
#
# Disc length: 4342 seconds
#
# Revision: 0
# Processed by: cddbd v1.5.2PL0 Copyright (c) Steve Scherf et al.
# Submitted via: EasyCDDAExtractor 2010.6.0.0
#
DISCID=3910f416
DTITLE=Riaan Van Niekerk - The Best Of
DYEAR=1900
DGENRE=Afrikaans
TTITLE0=Seven Spanish Angels
TTITLE1=I Just Wanna Dance With You
TTITLE2=All The Tears In The World
TTITLE3=Ruiter Van Die Windjie
TTITLE4=Living On Love
TTITLE5=Queen Of The Silver Dollar
TTITLE6=My Heart Is In Nashville
TTITLE7=Alone
TTITLE8=Never Die Again
TTITLE9=Have A Dream On Me
TTITLE10=TWo Pina Colades
TTITLE11=Want Ek Is Lief Vir Jou
TTITLE12=September Love
TTITLE13=Green Grass Of Home
TTITLE14=Here We Go Again
TTITLE15=The Day The Roses Died
TTITLE16=Do What You Do , Do Well
TTITLE17=Patches
TTITLE18=This Time Tomorrow
TTITLE19=I Need More Of You
TTITLE20=Busted
TTITLE21=Wie Sal Kom Nagsê
EXTD=
EXTT0=
EXTT1=
EXTT2=
EXTT3=
EXTT4=
EXTT5=
EXTT6=
EXTT7=
EXTT8=
EXTT9=
EXTT10=
EXTT11=
EXTT12=
EXTT13=
EXTT14=
EXTT15=
EXTT16=
EXTT17=
EXTT18=
EXTT19=
EXTT20=
EXTT21=
PLAYORDER=
